# xmcd
#
# Track frame offsets: 
#        150
#        21231
#        27175
#        33025
#        49676
#        53622
#        70024
#        84687
#        107917
#        123300
#        145928
#        169692
#        203453
#        212685
#        224301
#        264145
#        277824
#        285348
#        294557
#        310307
#        337978
#        343895
#
# Disc length: 4739 seconds
#
# Revision: 2
# Processed by: cddbd v1.5.2PL0 Copyright (c) Steve Scherf et al.
# Submitted via: ExactAudioCopy v0.95b3
#
DISCID=3a128116
DTITLE=Хор Московского Сретенского монастыря - Божественная литургия
DYEAR=2006
DGENRE=Liturgical
TTITLE0=Великая ектения (архимандрит Матфей (Мормыль))
TTITLE1=Антифон ''Благослови, душе моя, Господа'' (архимандрит Матфей 
TTITLE1=(Мормыль))
TTITLE2=Единородный Сыне (А. Кастальский)
TTITLE3=Во царствии Твоем (А. Андреев)
TTITLE4=Приидите, поклонимся
TTITLE5=Тропари
TTITLE6=Трисвятое (А. Архангельский)
TTITLE7=Апостольское чтение (Евр. 10:32-38) - Аллилуарий (Д. Яичков)
TTITLE8=Евангельское чтение (Мк. 2:14-17)
TTITLE9=Сугубая ектения
TTITLE10=Заупокойная ектения (Д. Яичков)
TTITLE11=Херувимская песнь (архимандрит Матфей (Мормыль))
TTITLE12=Просительная ектения
TTITLE13=Символ веры
TTITLE14=Милость мира, заупокойная (А. Архангельский, переложение И. Т
TTITLE14=ымуша)
TTITLE15=Достойно есть (П. Динев)
TTITLE16=Первых помяни Господи
TTITLE17=Просительная ектения
TTITLE18=Отче наш
TTITLE19=Причастен ''Блажен, яже избрал'' (Г. Львовский, переложение а
TTITLE19=рхимандрита Матфея (Мормыля))
TTITLE20=Благословен грядый во имя Господне
TTITLE21=Окончание Литургии ''Господи сохрани'' (архимандрит Матфей (М
TTITLE21=ормыль))
EXTD=
EXTT0=
EXTT1=
EXTT2=
EXTT3=
EXTT4=
EXTT5=
EXTT6=
EXTT7=
EXTT8=
EXTT9=
EXTT10=
EXTT11=
EXTT12=
EXTT13=
EXTT14=
EXTT15=
EXTT16=
EXTT17=
EXTT18=
EXTT19=
EXTT20=
EXTT21=
PLAYORDER=
